solid OpenSCAD_Model
  facet normal 1 -0 0
    outer loop
      vertex 50 -15 42.5
      vertex 50 15 37.5
      vertex 50 15 42.5
    endloop
  endfacet
  facet normal 1 0 0
    outer loop
      vertex 50 15 37.5
      vertex 50 -15 42.5
      vertex 50 -15 37.5
    endloop
  endfacet
  facet normal -0 0 1
    outer loop
      vertex -50 15 42.5
      vertex 50 -15 42.5
      vertex 50 15 42.5
    endloop
  endfacet
  facet normal 0 0 1
    outer loop
      vertex 50 -15 42.5
      vertex -50 15 42.5
      vertex -50 -15 42.5
    endloop
  endfacet
  facet normal 0 0 -1
    outer loop
      vertex -47.5 -9.5 37.5
      vertex -42.5 9.5 37.5
      vertex -42.5 -9.5 37.5
    endloop
  endfacet
  facet normal -0 0 -1
    outer loop
      vertex -42.5 9.5 37.5
      vertex -47.5 -9.5 37.5
      vertex -47.5 9.5 37.5
    endloop
  endfacet
  facet normal 0 0 -1
    outer loop
      vertex 42.5 -9.5 37.5
      vertex 47.5 9.5 37.5
      vertex 47.5 -9.5 37.5
    endloop
  endfacet
  facet normal -0 0 -1
    outer loop
      vertex 47.5 9.5 37.5
      vertex 42.5 -9.5 37.5
      vertex 42.5 9.5 37.5
    endloop
  endfacet
  facet normal 0 0 -1
    outer loop
      vertex 47.5 -9.5 37.5
      vertex 50 -15 37.5
      vertex 47.5 -14.5 37.5
    endloop
  endfacet
  facet normal 0 0 -1
    outer loop
      vertex 50 -15 37.5
      vertex 42.5 -14.5 37.5
      vertex 47.5 -14.5 37.5
    endloop
  endfacet
  facet normal 0 0 -1
    outer loop
      vertex -42.5 -9.5 37.5
      vertex 42.5 -9.5 37.5
      vertex 42.5 -14.5 37.5
    endloop
  endfacet
  facet normal 0 0 -1
    outer loop
      vertex 42.5 -9.5 37.5
      vertex -42.5 -9.5 37.5
      vertex 42.5 9.5 37.5
    endloop
  endfacet
  facet normal 0 0 -1
    outer loop
      vertex -42.5 -9.5 37.5
      vertex 42.5 -14.5 37.5
      vertex -42.5 -14.5 37.5
    endloop
  endfacet
  facet normal 0 0 -1
    outer loop
      vertex 50 -15 37.5
      vertex -42.5 -14.5 37.5
      vertex 42.5 -14.5 37.5
    endloop
  endfacet
  facet normal 0 0 -1
    outer loop
      vertex -50 -15 37.5
      vertex -42.5 -14.5 37.5
      vertex 50 -15 37.5
    endloop
  endfacet
  facet normal 0 0 -1
    outer loop
      vertex -50 -15 37.5
      vertex -47.5 -9.5 37.5
      vertex -47.5 -14.5 37.5
    endloop
  endfacet
  facet normal -0 0 -1
    outer loop
      vertex -47.5 -9.5 37.5
      vertex -50 -15 37.5
      vertex -47.5 9.5 37.5
    endloop
  endfacet
  facet normal 0 0 -1
    outer loop
      vertex -50 15 37.5
      vertex -47.5 9.5 37.5
      vertex -50 -15 37.5
    endloop
  endfacet
  facet normal -0 0 -1
    outer loop
      vertex -42.5 -14.5 37.5
      vertex -50 -15 37.5
      vertex -47.5 -14.5 37.5
    endloop
  endfacet
  facet normal 0 0 -1
    outer loop
      vertex 50 -15 37.5
      vertex 47.5 -9.5 37.5
      vertex 50 15 37.5
    endloop
  endfacet
  facet normal 0 0 -1
    outer loop
      vertex 47.5 9.5 37.5
      vertex 50 15 37.5
      vertex 47.5 -9.5 37.5
    endloop
  endfacet
  facet normal 0 0 -1
    outer loop
      vertex 47.5 14.5 37.5
      vertex 50 15 37.5
      vertex 47.5 9.5 37.5
    endloop
  endfacet
  facet normal 0 0 -1
    outer loop
      vertex 42.5 14.5 37.5
      vertex 50 15 37.5
      vertex 47.5 14.5 37.5
    endloop
  endfacet
  facet normal 0 0 -1
    outer loop
      vertex -42.5 9.5 37.5
      vertex 42.5 9.5 37.5
      vertex -42.5 -9.5 37.5
    endloop
  endfacet
  facet normal 0 0 -1
    outer loop
      vertex 42.5 9.5 37.5
      vertex -42.5 9.5 37.5
      vertex 42.5 14.5 37.5
    endloop
  endfacet
  facet normal 0 0 -1
    outer loop
      vertex -42.5 14.5 37.5
      vertex 42.5 14.5 37.5
      vertex -42.5 9.5 37.5
    endloop
  endfacet
  facet normal 0 0 -1
    outer loop
      vertex 42.5 14.5 37.5
      vertex -42.5 14.5 37.5
      vertex 50 15 37.5
    endloop
  endfacet
  facet normal 0 0 -1
    outer loop
      vertex -50 15 37.5
      vertex -42.5 14.5 37.5
      vertex -47.5 14.5 37.5
    endloop
  endfacet
  facet normal 0 0 -1
    outer loop
      vertex -42.5 14.5 37.5
      vertex -50 15 37.5
      vertex 50 15 37.5
    endloop
  endfacet
  facet normal 0 0 -1
    outer loop
      vertex -47.5 9.5 37.5
      vertex -50 15 37.5
      vertex -47.5 14.5 37.5
    endloop
  endfacet
  facet normal -1 0 0
    outer loop
      vertex -50 -15 37.5
      vertex -50 15 42.5
      vertex -50 15 37.5
    endloop
  endfacet
  facet normal -1 -0 0
    outer loop
      vertex -50 15 42.5
      vertex -50 -15 37.5
      vertex -50 -15 42.5
    endloop
  endfacet
  facet normal 0 1 -0
    outer loop
      vertex 50 15 37.5
      vertex -50 15 42.5
      vertex 50 15 42.5
    endloop
  endfacet
  facet normal 0 1 0
    outer loop
      vertex -50 15 42.5
      vertex 50 15 37.5
      vertex -50 15 37.5
    endloop
  endfacet
  facet normal 0 -1 0
    outer loop
      vertex -50 -15 37.5
      vertex 50 -15 42.5
      vertex -50 -15 42.5
    endloop
  endfacet
  facet normal 0 -1 -0
    outer loop
      vertex 50 -15 42.5
      vertex -50 -15 37.5
      vertex 50 -15 37.5
    endloop
  endfacet
  facet normal 1 -0 0
    outer loop
      vertex -42.5 -14.5 37.5
      vertex -42.5 -9.5 0
      vertex -42.5 -9.5 37.5
    endloop
  endfacet
  facet normal 1 0 0
    outer loop
      vertex -42.5 -9.5 0
      vertex -42.5 -14.5 37.5
      vertex -42.5 -14.5 0
    endloop
  endfacet
  facet normal 0 0 -1
    outer loop
      vertex -47.5 -14.5 0
      vertex -42.5 -9.5 0
      vertex -42.5 -14.5 0
    endloop
  endfacet
  facet normal -0 0 -1
    outer loop
      vertex -42.5 -9.5 0
      vertex -47.5 -14.5 0
      vertex -47.5 -9.5 0
    endloop
  endfacet
  facet normal -1 0 0
    outer loop
      vertex -47.5 -14.5 0
      vertex -47.5 -9.5 37.5
      vertex -47.5 -9.5 0
    endloop
  endfacet
  facet normal -1 -0 0
    outer loop
      vertex -47.5 -9.5 37.5
      vertex -47.5 -14.5 0
      vertex -47.5 -14.5 37.5
    endloop
  endfacet
  facet normal 0 1 -0
    outer loop
      vertex -42.5 -9.5 0
      vertex -47.5 -9.5 37.5
      vertex -42.5 -9.5 37.5
    endloop
  endfacet
  facet normal 0 1 0
    outer loop
      vertex -47.5 -9.5 37.5
      vertex -42.5 -9.5 0
      vertex -47.5 -9.5 0
    endloop
  endfacet
  facet normal 0 -1 0
    outer loop
      vertex -47.5 -14.5 0
      vertex -42.5 -14.5 37.5
      vertex -47.5 -14.5 37.5
    endloop
  endfacet
  facet normal 0 -1 -0
    outer loop
      vertex -42.5 -14.5 37.5
      vertex -47.5 -14.5 0
      vertex -42.5 -14.5 0
    endloop
  endfacet
  facet normal 1 -0 0
    outer loop
      vertex 47.5 -14.5 37.5
      vertex 47.5 -9.5 0
      vertex 47.5 -9.5 37.5
    endloop
  endfacet
  facet normal 1 0 0
    outer loop
      vertex 47.5 -9.5 0
      vertex 47.5 -14.5 37.5
      vertex 47.5 -14.5 0
    endloop
  endfacet
  facet normal 0 0 -1
    outer loop
      vertex 42.5 -14.5 0
      vertex 47.5 -9.5 0
      vertex 47.5 -14.5 0
    endloop
  endfacet
  facet normal -0 0 -1
    outer loop
      vertex 47.5 -9.5 0
      vertex 42.5 -14.5 0
      vertex 42.5 -9.5 0
    endloop
  endfacet
  facet normal -1 0 0
    outer loop
      vertex 42.5 -14.5 0
      vertex 42.5 -9.5 37.5
      vertex 42.5 -9.5 0
    endloop
  endfacet
  facet normal -1 -0 0
    outer loop
      vertex 42.5 -9.5 37.5
      vertex 42.5 -14.5 0
      vertex 42.5 -14.5 37.5
    endloop
  endfacet
  facet normal 0 1 -0
    outer loop
      vertex 47.5 -9.5 0
      vertex 42.5 -9.5 37.5
      vertex 47.5 -9.5 37.5
    endloop
  endfacet
  facet normal 0 1 0
    outer loop
      vertex 42.5 -9.5 37.5
      vertex 47.5 -9.5 0
      vertex 42.5 -9.5 0
    endloop
  endfacet
  facet normal 0 -1 0
    outer loop
      vertex 42.5 -14.5 0
      vertex 47.5 -14.5 37.5
      vertex 42.5 -14.5 37.5
    endloop
  endfacet
  facet normal 0 -1 -0
    outer loop
      vertex 47.5 -14.5 37.5
      vertex 42.5 -14.5 0
      vertex 47.5 -14.5 0
    endloop
  endfacet
  facet normal 1 -0 0
    outer loop
      vertex -42.5 9.5 37.5
      vertex -42.5 14.5 0
      vertex -42.5 14.5 37.5
    endloop
  endfacet
  facet normal 1 0 0
    outer loop
      vertex -42.5 14.5 0
      vertex -42.5 9.5 37.5
      vertex -42.5 9.5 0
    endloop
  endfacet
  facet normal 0 0 -1
    outer loop
      vertex -47.5 9.5 0
      vertex -42.5 14.5 0
      vertex -42.5 9.5 0
    endloop
  endfacet
  facet normal -0 0 -1
    outer loop
      vertex -42.5 14.5 0
      vertex -47.5 9.5 0
      vertex -47.5 14.5 0
    endloop
  endfacet
  facet normal -1 0 0
    outer loop
      vertex -47.5 9.5 0
      vertex -47.5 14.5 37.5
      vertex -47.5 14.5 0
    endloop
  endfacet
  facet normal -1 -0 0
    outer loop
      vertex -47.5 14.5 37.5
      vertex -47.5 9.5 0
      vertex -47.5 9.5 37.5
    endloop
  endfacet
  facet normal 0 1 -0
    outer loop
      vertex -42.5 14.5 0
      vertex -47.5 14.5 37.5
      vertex -42.5 14.5 37.5
    endloop
  endfacet
  facet normal 0 1 0
    outer loop
      vertex -47.5 14.5 37.5
      vertex -42.5 14.5 0
      vertex -47.5 14.5 0
    endloop
  endfacet
  facet normal 0 -1 0
    outer loop
      vertex -47.5 9.5 0
      vertex -42.5 9.5 37.5
      vertex -47.5 9.5 37.5
    endloop
  endfacet
  facet normal 0 -1 -0
    outer loop
      vertex -42.5 9.5 37.5
      vertex -47.5 9.5 0
      vertex -42.5 9.5 0
    endloop
  endfacet
  facet normal 1 -0 0
    outer loop
      vertex 47.5 9.5 37.5
      vertex 47.5 14.5 0
      vertex 47.5 14.5 37.5
    endloop
  endfacet
  facet normal 1 0 0
    outer loop
      vertex 47.5 14.5 0
      vertex 47.5 9.5 37.5
      vertex 47.5 9.5 0
    endloop
  endfacet
  facet normal 0 0 -1
    outer loop
      vertex 42.5 9.5 0
      vertex 47.5 14.5 0
      vertex 47.5 9.5 0
    endloop
  endfacet
  facet normal -0 0 -1
    outer loop
      vertex 47.5 14.5 0
      vertex 42.5 9.5 0
      vertex 42.5 14.5 0
    endloop
  endfacet
  facet normal -1 0 0
    outer loop
      vertex 42.5 9.5 0
      vertex 42.5 14.5 37.5
      vertex 42.5 14.5 0
    endloop
  endfacet
  facet normal -1 -0 0
    outer loop
      vertex 42.5 14.5 37.5
      vertex 42.5 9.5 0
      vertex 42.5 9.5 37.5
    endloop
  endfacet
  facet normal 0 1 -0
    outer loop
      vertex 47.5 14.5 0
      vertex 42.5 14.5 37.5
      vertex 47.5 14.5 37.5
    endloop
  endfacet
  facet normal 0 1 0
    outer loop
      vertex 42.5 14.5 37.5
      vertex 47.5 14.5 0
      vertex 42.5 14.5 0
    endloop
  endfacet
  facet normal 0 -1 0
    outer loop
      vertex 42.5 9.5 0
      vertex 47.5 9.5 37.5
      vertex 42.5 9.5 37.5
    endloop
  endfacet
  facet normal 0 -1 -0
    outer loop
      vertex 47.5 9.5 37.5
      vertex 42.5 9.5 0
      vertex 47.5 9.5 0
    endloop
  endfacet
endsolid OpenSCAD_Model
